<svg xmlns="http://www.w3.org/2000/svg" width="100" zoomAndPan="magnify"
     viewBox="0 0 75 74.999997" height="100" preserveAspectRatio="xMidYMid meet" version="1.0">
    <defs>
        <clipPath id="ffc05017e3">
            <path d="M 17 27.777344 L 41 27.777344 L 41 57 L 17 57 Z M 17 27.777344 " clip-rule="nonzero"/>
        </clipPath>
        <clipPath id="ecf5a87480">
            <path d="M 34 27.777344 L 58 27.777344 L 58 57 L 34 57 Z M 34 27.777344 " clip-rule="nonzero"/>
        </clipPath>
        <clipPath id="8849155e50">
            <path d="M 6.390625 37 L 68.640625 37 L 68.640625 65.277344 L 6.390625 65.277344 Z M 6.390625 37 "
                  clip-rule="nonzero"/>
        </clipPath>
        <clipPath id="506c3ca637">
            <path d="M 35 24 L 40 24 L 40 27.664062 L 35 27.664062 Z M 35 24 " clip-rule="nonzero"/>
        </clipPath>
        <clipPath id="eb851f5fc8">
            <path d="M 28.152344 9.664062 L 46.902344 9.664062 L 46.902344 27.664062 L 28.152344 27.664062 Z M 28.152344 9.664062 "
                  clip-rule="nonzero"/>
        </clipPath>
    </defs>
    <path fill="#ffffff"
          d="M 37.203125 54.714844 C 36.828125 54.714844 36.457031 54.578125 36.164062 54.3125 L 19.777344 39.382812 C 19.261719 38.914062 19.125 38.164062 19.441406 37.542969 L 23.238281 30.15625 C 23.496094 29.652344 24.011719 29.328125 24.578125 29.316406 C 24.589844 29.316406 24.597656 29.316406 24.609375 29.316406 C 25.164062 29.316406 25.679688 29.617188 25.953125 30.101562 L 38.546875 52.417969 C 38.917969 53.078125 38.753906 53.90625 38.164062 54.378906 C 37.878906 54.601562 37.542969 54.714844 37.203125 54.714844 Z M 37.203125 54.714844 "
          fill-opacity="1" fill-rule="nonzero"/>
    <g clip-path="url(#ffc05017e3)">
        <path fill="#004380"
              d="M 24.609375 30.855469 L 37.203125 53.175781 L 20.816406 38.246094 L 24.609375 30.855469 M 24.609375 27.777344 C 24.589844 27.777344 24.566406 27.78125 24.546875 27.78125 C 23.414062 27.800781 22.382812 28.445312 21.863281 29.453125 L 18.070312 36.84375 C 17.4375 38.078125 17.710938 39.585938 18.738281 40.519531 L 35.125 55.449219 C 35.710938 55.980469 36.457031 56.253906 37.203125 56.253906 C 37.878906 56.253906 38.558594 56.03125 39.121094 55.582031 C 40.308594 54.640625 40.632812 52.980469 39.890625 51.664062 L 27.292969 29.347656 C 26.746094 28.378906 25.71875 27.777344 24.609375 27.777344 Z M 24.609375 27.777344 "
              fill-opacity="1" fill-rule="nonzero"/>
    </g>
    <path fill="#79bfea" d="M 20.816406 38.246094 L 37.203125 53.175781 L 23.132812 33.734375 Z M 20.816406 38.246094 "
          fill-opacity="1" fill-rule="nonzero"/>
    <path fill="#ffffff"
          d="M 37.828125 54.714844 C 37.492188 54.714844 37.152344 54.601562 36.871094 54.378906 C 36.277344 53.910156 36.117188 53.078125 36.488281 52.417969 L 49.082031 30.101562 C 49.355469 29.617188 49.867188 29.316406 50.425781 29.316406 C 50.433594 29.316406 50.445312 29.316406 50.453125 29.316406 C 51.023438 29.328125 51.539062 29.652344 51.796875 30.15625 L 55.589844 37.542969 C 55.90625 38.164062 55.769531 38.914062 55.257812 39.382812 L 38.871094 54.3125 C 38.574219 54.578125 38.203125 54.714844 37.828125 54.714844 Z M 37.828125 54.714844 "
          fill-opacity="1" fill-rule="nonzero"/>
    <g clip-path="url(#ecf5a87480)">
        <path fill="#004380"
              d="M 50.425781 30.855469 L 54.21875 38.246094 L 37.828125 53.175781 L 50.425781 30.855469 M 50.425781 27.777344 C 49.3125 27.777344 48.285156 28.378906 47.738281 29.347656 L 35.144531 51.664062 C 34.402344 52.980469 34.726562 54.640625 35.910156 55.582031 C 36.472656 56.03125 37.152344 56.253906 37.828125 56.253906 C 38.578125 56.253906 39.320312 55.984375 39.910156 55.449219 L 56.296875 40.519531 C 57.324219 39.585938 57.597656 38.078125 56.960938 36.84375 L 53.167969 29.453125 C 52.652344 28.445312 51.621094 27.800781 50.484375 27.78125 C 50.464844 27.78125 50.445312 27.777344 50.425781 27.777344 Z M 50.425781 27.777344 "
              fill-opacity="1" fill-rule="nonzero"/>
    </g>
    <path fill="#79bfea" d="M 54.21875 38.246094 L 37.832031 53.175781 L 51.902344 33.734375 Z M 54.21875 38.246094 "
          fill-opacity="1" fill-rule="nonzero"/>
    <path fill="#ffffff"
          d="M 37.023438 59.050781 C 36.757812 59.050781 36.492188 58.984375 36.25 58.84375 L 10.453125 43.914062 C 10.066406 43.691406 9.792969 43.308594 9.710938 42.863281 C 9.628906 42.421875 9.746094 41.96875 10.027344 41.617188 L 15.996094 34.230469 C 16.28125 33.875 16.707031 33.667969 17.160156 33.65625 C 17.171875 33.65625 17.1875 33.65625 17.199219 33.65625 C 17.636719 33.65625 18.058594 33.84375 18.351562 34.175781 L 38.175781 56.492188 C 38.675781 57.058594 38.695312 57.902344 38.214844 58.488281 C 37.914062 58.855469 37.472656 59.050781 37.023438 59.050781 Z M 37.023438 59.050781 "
          fill-opacity="1" fill-rule="nonzero"/>
    <path fill="#004380"
          d="M 17.199219 35.195312 L 37.023438 57.511719 L 11.226562 42.585938 L 17.199219 35.195312 M 17.199219 32.117188 C 17.175781 32.117188 17.148438 32.117188 17.125 32.117188 C 16.21875 32.140625 15.367188 32.558594 14.796875 33.261719 L 8.828125 40.652344 C 8.261719 41.351562 8.03125 42.261719 8.195312 43.144531 C 8.359375 44.027344 8.902344 44.796875 9.679688 45.246094 L 35.476562 60.175781 C 35.960938 60.457031 36.492188 60.589844 37.019531 60.589844 C 37.921875 60.589844 38.804688 60.199219 39.410156 59.460938 C 40.367188 58.292969 40.332031 56.601562 39.328125 55.46875 L 19.503906 33.152344 C 18.917969 32.492188 18.078125 32.117188 17.199219 32.117188 Z M 17.199219 32.117188 "
          fill-opacity="1" fill-rule="nonzero"/>
    <path fill="#ffffff"
          d="M 38.011719 59.050781 C 37.5625 59.050781 37.117188 58.855469 36.816406 58.488281 C 36.339844 57.902344 36.355469 57.058594 36.855469 56.492188 L 56.683594 34.175781 C 56.972656 33.84375 57.394531 33.65625 57.835938 33.65625 C 57.847656 33.65625 57.859375 33.65625 57.871094 33.65625 C 58.324219 33.667969 58.75 33.875 59.035156 34.230469 L 65.003906 41.617188 C 65.289062 41.96875 65.402344 42.421875 65.320312 42.863281 C 65.238281 43.308594 64.96875 43.691406 64.578125 43.914062 L 38.785156 58.84375 C 38.542969 58.984375 38.273438 59.050781 38.011719 59.050781 Z M 38.011719 59.050781 "
          fill-opacity="1" fill-rule="nonzero"/>
    <path fill="#004380"
          d="M 57.835938 35.195312 L 63.804688 42.585938 L 38.011719 57.511719 L 57.835938 35.195312 M 57.835938 32.117188 C 56.953125 32.117188 56.113281 32.492188 55.527344 33.152344 L 35.703125 55.472656 C 34.699219 56.601562 34.664062 58.292969 35.625 59.460938 C 36.226562 60.199219 37.113281 60.589844 38.011719 60.589844 C 38.539062 60.589844 39.074219 60.457031 39.558594 60.175781 L 65.351562 45.246094 C 66.128906 44.796875 66.671875 44.027344 66.835938 43.144531 C 67 42.261719 66.769531 41.351562 66.207031 40.652344 L 60.234375 33.261719 C 59.664062 32.558594 58.8125 32.140625 57.90625 32.117188 C 57.882812 32.117188 57.859375 32.117188 57.835938 32.117188 Z M 57.835938 32.117188 "
          fill-opacity="1" fill-rule="nonzero"/>
    <path fill="#009cda"
          d="M 33.628906 63.738281 C 33.371094 63.738281 33.117188 63.675781 32.894531 63.550781 L 8.886719 50.527344 C 8.390625 50.257812 8.082031 49.742188 8.082031 49.175781 L 8.082031 41.011719 C 8.082031 40.425781 8.414062 39.894531 8.9375 39.632812 C 9.15625 39.523438 9.390625 39.472656 9.625 39.472656 C 9.953125 39.472656 10.28125 39.574219 10.550781 39.78125 L 34.144531 57.503906 L 40.886719 57.503906 L 64.480469 39.78125 C 64.753906 39.574219 65.078125 39.472656 65.40625 39.472656 C 65.640625 39.472656 65.878906 39.523438 66.097656 39.632812 C 66.617188 39.894531 66.949219 40.425781 66.949219 41.011719 L 66.949219 49.175781 C 66.949219 49.742188 66.640625 50.257812 66.144531 50.527344 L 42.140625 63.550781 C 41.914062 63.675781 41.660156 63.738281 41.402344 63.738281 Z M 33.628906 63.738281 "
          fill-opacity="1" fill-rule="nonzero"/>
    <g clip-path="url(#8849155e50)">
        <path fill="#004380"
              d="M 65.40625 41.011719 L 65.40625 49.175781 L 41.402344 62.199219 L 33.628906 62.199219 L 9.625 49.175781 L 9.625 41.011719 L 33.628906 59.042969 L 41.402344 59.042969 L 65.40625 41.011719 M 65.40625 37.933594 C 64.75 37.933594 64.097656 38.140625 63.554688 38.550781 L 40.371094 55.964844 L 34.660156 55.964844 L 11.480469 38.550781 C 10.933594 38.140625 10.28125 37.933594 9.625 37.933594 C 9.15625 37.933594 8.683594 38.039062 8.25 38.253906 C 7.203125 38.777344 6.542969 39.84375 6.542969 41.011719 L 6.542969 49.175781 C 6.542969 50.304688 7.160156 51.34375 8.152344 51.878906 L 32.15625 64.902344 C 32.609375 65.148438 33.113281 65.277344 33.628906 65.277344 L 41.402344 65.277344 C 41.917969 65.277344 42.425781 65.148438 42.875 64.902344 L 66.878906 51.878906 C 67.875 51.34375 68.492188 50.304688 68.492188 49.175781 L 68.492188 41.011719 C 68.492188 39.84375 67.832031 38.777344 66.785156 38.253906 C 66.347656 38.039062 65.878906 37.933594 65.40625 37.933594 Z M 65.40625 37.933594 "
              fill-opacity="1" fill-rule="nonzero"/>
    </g>
    <path fill="#0076c0"
          d="M 33.628906 60.808594 L 9.625 46.625 L 9.625 49.175781 L 33.628906 62.199219 L 41.402344 62.199219 L 65.40625 49.175781 L 65.40625 46.625 L 41.402344 60.808594 Z M 33.628906 60.808594 "
          fill-opacity="1" fill-rule="nonzero"/>
    <path fill="#faf34a"
          d="M 37.496094 14.195312 C 34.855469 14.195312 32.71875 16.335938 32.71875 18.972656 C 32.71875 20.871094 33.824219 22.511719 35.433594 23.28125 L 35.433594 24.917969 L 39.5625 24.917969 L 39.5625 23.28125 C 41.167969 22.511719 42.28125 20.871094 42.28125 18.972656 C 42.273438 16.335938 40.132812 14.195312 37.496094 14.195312 Z M 37.496094 14.195312 "
          fill-opacity="1" fill-rule="nonzero"/>
    <g clip-path="url(#506c3ca637)">
        <path fill="#d3d3d3"
              d="M 35.429688 24.921875 L 35.429688 26.617188 C 35.429688 27.167969 35.878906 27.617188 36.429688 27.617188 L 38.558594 27.617188 C 39.109375 27.617188 39.558594 27.167969 39.558594 26.617188 L 39.558594 24.921875 Z M 35.429688 24.921875 "
              fill-opacity="1" fill-rule="nonzero"/>
    </g>
    <g clip-path="url(#eb851f5fc8)">
        <path fill="#004380"
              d="M 37.496094 14.035156 C 34.773438 14.035156 32.558594 16.25 32.558594 18.972656 C 32.558594 20.828125 33.621094 22.550781 35.277344 23.382812 L 35.277344 26.652344 C 35.277344 27.257812 35.773438 27.753906 36.378906 27.753906 L 38.625 27.753906 C 39.230469 27.753906 39.726562 27.257812 39.726562 26.652344 L 39.726562 23.386719 C 41.378906 22.554688 42.445312 20.835938 42.445312 18.980469 C 42.433594 16.25 40.21875 14.035156 37.496094 14.035156 Z M 36.464844 20.070312 C 35.734375 19.984375 35.382812 19.765625 35.382812 19.222656 C 35.382812 18.742188 35.640625 18.519531 35.878906 18.519531 C 36.019531 18.519531 36.15625 18.59375 36.261719 18.71875 C 36.394531 18.882812 36.464844 19.125 36.464844 19.421875 Z M 37.496094 20.429688 C 37.746094 20.429688 37.988281 20.421875 38.207031 20.414062 L 38.207031 24.765625 L 36.78125 24.765625 L 36.78125 20.414062 C 37.007812 20.421875 37.25 20.429688 37.496094 20.429688 Z M 39.402344 25.082031 L 39.402344 25.597656 L 35.585938 25.597656 L 35.585938 25.082031 Z M 35.585938 25.914062 L 39.402344 25.914062 L 39.402344 26.429688 L 35.585938 26.429688 Z M 38.621094 27.433594 L 36.375 27.433594 C 35.972656 27.433594 35.644531 27.132812 35.59375 26.746094 L 39.394531 26.746094 C 39.347656 27.132812 39.019531 27.433594 38.621094 27.433594 Z M 39.492188 23.140625 C 39.4375 23.167969 39.402344 23.222656 39.402344 23.28125 L 39.402344 24.757812 L 38.523438 24.757812 L 38.523438 20.386719 C 39.347656 20.296875 39.921875 20.027344 39.921875 19.214844 C 39.921875 18.550781 39.511719 18.199219 39.109375 18.199219 C 38.875 18.199219 38.640625 18.3125 38.476562 18.519531 C 38.304688 18.742188 38.207031 19.050781 38.207031 19.417969 L 38.207031 20.089844 C 37.996094 20.101562 37.753906 20.105469 37.496094 20.105469 C 37.238281 20.105469 36.996094 20.101562 36.785156 20.089844 L 36.785156 19.417969 C 36.785156 19.050781 36.691406 18.742188 36.515625 18.519531 C 36.351562 18.3125 36.121094 18.199219 35.882812 18.199219 C 35.476562 18.199219 35.070312 18.546875 35.070312 19.214844 C 35.070312 20.027344 35.644531 20.296875 36.46875 20.386719 L 36.46875 24.765625 L 35.585938 24.765625 L 35.585938 23.289062 C 35.585938 23.222656 35.550781 23.171875 35.496094 23.144531 C 33.90625 22.378906 32.871094 20.746094 32.871094 18.980469 C 32.871094 16.429688 34.945312 14.359375 37.492188 14.359375 C 40.039062 14.359375 42.113281 16.429688 42.113281 18.980469 C 42.117188 20.738281 41.089844 22.375 39.492188 23.140625 Z M 38.523438 20.070312 L 38.523438 19.421875 C 38.523438 19.125 38.59375 18.882812 38.726562 18.71875 C 38.832031 18.589844 38.96875 18.519531 39.109375 18.519531 C 39.347656 18.519531 39.605469 18.742188 39.605469 19.222656 C 39.605469 19.765625 39.257812 19.984375 38.523438 20.070312 Z M 37.65625 9.839844 L 37.65625 12.597656 C 37.65625 12.6875 37.585938 12.753906 37.496094 12.753906 C 37.40625 12.753906 37.339844 12.6875 37.339844 12.597656 L 37.339844 9.839844 C 37.339844 9.75 37.40625 9.679688 37.496094 9.679688 C 37.585938 9.679688 37.65625 9.75 37.65625 9.839844 Z M 31.109375 19.035156 L 28.308594 19.035156 C 28.21875 19.035156 28.152344 18.96875 28.152344 18.878906 C 28.152344 18.789062 28.21875 18.71875 28.308594 18.71875 L 31.109375 18.71875 C 31.199219 18.71875 31.269531 18.789062 31.269531 18.878906 C 31.269531 18.96875 31.199219 19.035156 31.109375 19.035156 Z M 46.84375 18.878906 C 46.84375 18.96875 46.773438 19.035156 46.683594 19.035156 L 43.882812 19.035156 C 43.792969 19.035156 43.726562 18.96875 43.726562 18.878906 C 43.726562 18.789062 43.792969 18.71875 43.882812 18.71875 L 46.683594 18.71875 C 46.769531 18.71875 46.84375 18.789062 46.84375 18.878906 Z M 33.09375 14.320312 C 33.15625 14.386719 33.15625 14.484375 33.09375 14.542969 C 33.0625 14.574219 33.019531 14.589844 32.980469 14.589844 C 32.941406 14.589844 32.902344 14.574219 32.871094 14.542969 L 30.886719 12.589844 C 30.824219 12.527344 30.824219 12.429688 30.886719 12.371094 C 30.953125 12.308594 31.050781 12.308594 31.109375 12.371094 Z M 44.105469 25.160156 C 44.167969 25.222656 44.167969 25.324219 44.105469 25.382812 C 44.074219 25.414062 44.03125 25.429688 43.996094 25.429688 C 43.953125 25.429688 43.914062 25.414062 43.882812 25.382812 L 41.902344 23.429688 C 41.835938 23.367188 41.835938 23.265625 41.902344 23.207031 C 41.964844 23.144531 42.0625 23.144531 42.121094 23.207031 Z M 33.09375 23.207031 C 33.15625 23.273438 33.152344 23.371094 33.09375 23.429688 L 31.109375 25.382812 C 31.078125 25.414062 31.042969 25.429688 31 25.429688 C 30.957031 25.429688 30.914062 25.414062 30.886719 25.382812 C 30.824219 25.316406 30.832031 25.21875 30.886719 25.160156 L 32.871094 23.207031 C 32.933594 23.144531 33.035156 23.144531 33.09375 23.207031 Z M 41.894531 14.546875 C 41.832031 14.484375 41.835938 14.386719 41.894531 14.328125 L 43.878906 12.375 C 43.941406 12.3125 44.042969 12.316406 44.101562 12.375 C 44.164062 12.4375 44.15625 12.539062 44.101562 12.597656 L 42.117188 14.546875 C 42.085938 14.578125 42.046875 14.597656 42.007812 14.597656 C 41.96875 14.597656 41.925781 14.578125 41.894531 14.546875 Z M 35.191406 13.003906 C 35.222656 13.082031 35.1875 13.175781 35.109375 13.207031 C 35.085938 13.21875 35.066406 13.21875 35.042969 13.21875 C 34.980469 13.21875 34.921875 13.183594 34.898438 13.125 L 34.394531 11.9375 C 34.363281 11.859375 34.402344 11.761719 34.480469 11.730469 C 34.558594 11.699219 34.652344 11.738281 34.6875 11.816406 Z M 31.648438 21.429688 L 30.441406 21.921875 C 30.417969 21.933594 30.398438 21.933594 30.382812 21.933594 C 30.320312 21.933594 30.261719 21.894531 30.234375 21.832031 C 30.203125 21.753906 30.238281 21.65625 30.320312 21.625 L 31.527344 21.136719 C 31.605469 21.105469 31.699219 21.140625 31.730469 21.21875 C 31.765625 21.308594 31.726562 21.398438 31.648438 21.429688 Z M 43.34375 16.324219 L 44.554688 15.835938 C 44.632812 15.804688 44.726562 15.839844 44.757812 15.917969 C 44.789062 16 44.753906 16.09375 44.675781 16.125 L 43.46875 16.617188 C 43.445312 16.625 43.425781 16.625 43.410156 16.625 C 43.34375 16.625 43.289062 16.589844 43.261719 16.527344 C 43.222656 16.445312 43.265625 16.355469 43.34375 16.324219 Z M 40.585938 11.9375 L 40.085938 13.125 C 40.058594 13.183594 40 13.21875 39.9375 13.21875 C 39.917969 13.21875 39.894531 13.214844 39.875 13.207031 C 39.796875 13.175781 39.757812 13.082031 39.789062 13.003906 L 40.292969 11.816406 C 40.324219 11.738281 40.417969 11.699219 40.496094 11.730469 C 40.585938 11.761719 40.625 11.851562 40.585938 11.9375 Z M 30.234375 15.917969 C 30.265625 15.839844 30.359375 15.796875 30.441406 15.835938 L 31.648438 16.324219 C 31.726562 16.355469 31.769531 16.453125 31.730469 16.53125 C 31.707031 16.59375 31.648438 16.632812 31.585938 16.632812 C 31.5625 16.632812 31.542969 16.625 31.527344 16.621094 L 30.320312 16.128906 C 30.238281 16.089844 30.199219 16 30.234375 15.917969 Z M 44.757812 21.835938 C 44.734375 21.902344 44.675781 21.9375 44.613281 21.9375 C 44.589844 21.9375 44.570312 21.933594 44.554688 21.925781 L 43.34375 21.4375 C 43.265625 21.40625 43.222656 21.308594 43.261719 21.230469 C 43.292969 21.152344 43.386719 21.109375 43.46875 21.144531 L 44.675781 21.636719 C 44.753906 21.667969 44.789062 21.757812 44.757812 21.835938 Z M 44.757812 21.835938 "
              fill-opacity="1" fill-rule="nonzero"/>
    </g>
</svg>